<?xml version="1.0" standalone="no"?>
<!DOCTYPE svg PUBLIC "-//W3C//DTD SVG 20010904//EN"
 "http://www.w3.org/TR/2001/REC-SVG-20010904/DTD/svg10.dtd">
<svg version="1.0" xmlns="http://www.w3.org/2000/svg"
 width="711.000000pt" height="712.000000pt" viewBox="0 0 711.000000 712.000000"
 preserveAspectRatio="xMidYMid meet">

<g transform="translate(0.000000,712.000000) scale(0.100000,-0.100000)"
fill="#000000" stroke="none">
<path d="M1 5483 c1 -1446 3 -1625 15 -1523 109 904 556 1735 1244 2311 543
456 1173 727 1890 816 179 22 587 24 765 5 698 -78 1327 -335 1868 -766 208
-165 438 -401 602 -617 379 -498 622 -1089 705 -1716 18 -137 18 -132 19 1495
l1 1632 -3555 0 -3555 0 1 -1637z"/>
<path d="M2897 6219 c-85 -20 -127 -78 -127 -177 0 -45 5 -67 23 -92 40 -59
71 -75 147 -75 77 0 107 15 148 76 21 29 23 44 20 106 -2 53 -9 79 -24 100
-41 54 -115 79 -187 62z m97 -31 c37 -16 66 -83 66 -152 0 -91 -40 -140 -115
-140 -82 0 -130 70 -123 181 4 59 7 69 36 94 35 32 90 39 136 17z"/>
<path d="M4253 6218 c-4 -7 -35 -80 -69 -163 -44 -108 -67 -153 -82 -160 -36
-16 -25 -25 28 -25 52 0 60 5 35 24 -13 10 -12 17 5 54 l19 43 67 -3 67 -3 15
-44 c11 -33 12 -46 4 -49 -30 -10 -6 -22 43 -22 30 0 55 5 55 10 0 6 -6 10
-13 10 -16 0 -23 15 -79 155 -45 116 -76 185 -82 185 -3 0 -8 -6 -13 -12z m31
-137 c14 -36 26 -66 26 -68 0 -2 -25 -3 -56 -3 -54 0 -56 1 -50 24 9 35 46
120 50 115 2 -2 16 -33 30 -68z"/>
<path d="M2418 6210 c21 -9 22 -13 22 -165 0 -150 -1 -155 -21 -155 -11 0 -17
-4 -14 -10 3 -5 30 -10 60 -10 30 0 57 5 60 10 3 6 -3 10 -14 10 -19 0 -21 6
-21 70 l0 70 50 0 c36 0 52 -4 56 -15 12 -29 24 -15 21 24 -3 45 -13 62 -23
37 -5 -12 -19 -16 -56 -16 l-49 0 3 68 3 67 46 3 c54 3 99 -11 99 -33 0 -8 6
-15 14 -15 10 0 12 8 7 33 l-7 32 -129 2 c-87 1 -123 -1 -107 -7z"/>
<path d="M3243 6209 c15 -9 17 -28 17 -164 0 -150 -1 -155 -21 -155 -11 0 -17
-4 -14 -10 8 -12 95 -13 95 -1 0 5 -7 11 -15 15 -12 4 -15 27 -15 121 0 63 3
115 8 115 4 -1 52 -59 107 -130 55 -72 105 -130 112 -130 10 0 13 37 13 157 0
132 3 159 17 175 15 17 14 18 -33 18 -47 0 -48 0 -26 -16 22 -15 23 -22 21
-130 0 -63 -4 -114 -8 -114 -3 0 -40 44 -81 97 -118 154 -128 163 -164 163
-26 -1 -28 -2 -13 -11z"/>
<path d="M3680 6207 c24 -12 25 -15 28 -142 3 -143 -1 -175 -23 -175 -8 0 -15
-5 -15 -11 0 -8 30 -10 98 -7 79 3 105 8 139 28 116 65 110 257 -9 305 -51 20
-258 22 -218 2z m185 -21 c45 -19 75 -78 75 -146 0 -95 -49 -144 -138 -138
l-47 3 -3 125 c-4 161 -1 170 44 170 19 0 50 -6 69 -14z"/>
<path d="M1149 5546 c-9 -10 7 -120 18 -123 13 -5 29 98 18 116 -6 11 -28 15
-36 7z"/>
<path d="M1220 5498 c0 -29 4 -59 9 -67 17 -26 31 1 31 60 0 52 -2 59 -20 59
-17 0 -20 -7 -20 -52z"/>
<path d="M1867 5541 c-100 -21 -156 -152 -108 -257 24 -53 68 -83 129 -91 94
-11 170 40 194 130 36 135 -74 246 -215 218z m123 -51 c18 -19 33 -51 41 -84
21 -98 -9 -167 -82 -186 -84 -23 -148 40 -156 153 -7 100 31 145 125 146 36 1
49 -4 72 -29z"/>
<path d="M2853 5539 c-60 -18 -82 -83 -43 -132 11 -14 40 -35 64 -47 86 -41
107 -69 90 -114 -3 -8 -21 -20 -39 -26 -46 -15 -97 7 -114 49 -16 38 -31 31
-31 -13 0 -44 18 -57 88 -63 99 -9 164 40 147 110 -8 32 -25 47 -100 89 -33
19 -66 46 -74 60 -14 24 -14 28 3 47 13 14 31 21 57 21 39 0 63 -16 74 -50 9
-28 25 -15 25 20 0 18 -7 33 -17 38 -30 16 -96 21 -130 11z"/>
<path d="M4045 5541 c-3 -7 -35 -82 -70 -169 -40 -101 -69 -158 -79 -160 -34
-7 -14 -22 29 -22 42 0 61 13 33 23 -10 3 -9 14 3 48 l16 44 67 3 67 3 19 -43
c17 -37 18 -44 5 -54 -26 -19 -17 -24 45 -24 33 0 60 4 60 10 0 6 -7 10 -15
10 -18 0 -30 22 -95 185 -54 135 -72 166 -85 146z m34 -141 c12 -30 21 -58 21
-62 0 -5 -25 -8 -55 -8 -30 0 -55 2 -55 5 0 18 55 134 61 128 4 -5 17 -33 28
-63z"/>
<path d="M5750 5491 c0 -59 14 -86 31 -60 5 8 9 38 9 67 0 45 -3 52 -20 52
-18 0 -20 -7 -20 -59z"/>
<path d="M5827 5543 c-10 -9 -8 -96 2 -112 17 -26 31 1 31 60 0 42 -4 59 -13
59 -8 0 -17 -3 -20 -7z"/>
<path d="M1388 5530 c21 -9 22 -13 22 -165 0 -131 -2 -155 -15 -155 -8 0 -15
-4 -15 -10 0 -6 27 -10 60 -10 33 0 60 4 60 10 0 6 -9 10 -20 10 -18 0 -20 7
-20 64 l0 64 62 7 c82 10 115 41 109 105 -7 72 -42 90 -173 89 -66 0 -86 -3
-70 -9z m156 -21 c33 -15 50 -57 37 -92 -12 -32 -39 -47 -85 -47 -40 0 -43 6
-38 91 4 57 5 59 32 59 16 0 40 -5 54 -11z"/>
<path d="M2218 5528 c21 -11 22 -15 22 -160 0 -141 -1 -150 -20 -155 -40 -11
-18 -23 40 -23 59 0 80 12 40 23 -19 5 -21 12 -18 74 3 62 5 68 25 71 19 3 30
-8 60 -59 52 -86 76 -109 113 -109 33 0 41 15 11 23 -10 2 -37 35 -59 73 l-41
68 29 17 c70 43 68 131 -4 159 -39 14 -229 13 -198 -2z m187 -34 c40 -53 -5
-117 -79 -112 l-41 3 -3 54 c-5 79 -1 84 59 79 33 -4 54 -11 64 -24z"/>
<path d="M3138 5530 c21 -9 22 -13 22 -165 0 -97 -4 -155 -10 -155 -5 0 -10
-4 -10 -10 0 -5 25 -10 55 -10 54 0 74 13 35 23 -19 5 -20 14 -20 156 0 132 2
151 18 160 13 8 1 10 -48 10 -49 0 -59 -3 -42 -9z"/>
<path d="M3548 5530 c21 -9 22 -13 22 -165 0 -131 -2 -155 -15 -155 -8 0 -15
-4 -15 -10 0 -11 189 -14 226 -4 14 4 24 17 28 36 8 42 3 44 -28 13 -23 -23
-33 -26 -84 -23 l-57 3 -3 145 c-2 127 -1 146 15 157 14 11 7 13 -48 12 -48 0
-59 -2 -41 -9z"/>
<path d="M4495 5529 c14 -7 40 -61 84 -174 35 -91 69 -165 75 -165 7 0 16 12
22 28 6 15 35 88 64 163 37 98 58 140 74 147 17 9 12 11 -33 11 -47 1 -52 -1
-37 -12 16 -12 15 -19 -23 -120 -22 -59 -44 -115 -50 -124 -11 -20 -8 -26 -68
137 -32 89 -33 95 -17 107 15 11 8 13 -47 12 -49 0 -59 -3 -44 -10z"/>
<path d="M4928 5530 c21 -9 22 -13 22 -165 0 -131 -2 -155 -15 -155 -8 0 -15
-4 -15 -10 0 -12 229 -14 247 -2 14 9 30 72 18 72 -4 0 -18 -11 -31 -25 -22
-23 -30 -26 -86 -23 l-63 3 -3 68 -3 67 56 0 c42 0 55 -3 55 -15 0 -8 5 -15
10 -15 6 0 10 18 10 40 0 22 -4 40 -10 40 -5 0 -10 -4 -10 -10 0 -5 -25 -10
-55 -10 l-56 0 3 63 3 62 58 3 c51 3 60 0 82 -24 30 -32 41 -27 28 13 l-10 28
-129 2 c-86 1 -122 -1 -106 -7z"/>
<path d="M5313 5529 c15 -9 17 -28 17 -160 0 -124 -3 -151 -15 -155 -30 -12
-14 -24 30 -24 48 0 55 6 30 24 -13 9 -15 32 -13 130 l3 118 97 -124 c106
-136 122 -153 138 -143 6 4 10 65 10 165 0 141 2 160 18 169 13 8 4 10 -38 10
-43 0 -50 -2 -32 -9 21 -9 22 -14 22 -130 0 -66 -3 -120 -7 -120 -5 1 -48 53
-98 117 -113 146 -110 143 -148 143 -27 -1 -29 -2 -14 -11z"/>
<path d="M3120 4491 c0 -7 -24 -54 -54 -104 -30 -51 -60 -117 -67 -147 -6 -30
-18 -68 -26 -85 -14 -30 -14 -30 -9 15 3 25 3 37 0 28 -3 -9 -13 -20 -23 -23
-12 -4 -21 -19 -25 -46 -3 -22 -13 -42 -21 -45 -9 -4 -15 -19 -15 -38 0 -18
-6 -38 -12 -45 -11 -11 -10 -13 5 -8 21 8 21 5 -2 -46 -11 -23 -22 -80 -27
-126 -6 -70 -10 -84 -25 -88 -11 -3 -19 -10 -20 -17 -2 -33 -18 37 -18 83 -1
52 0 53 24 47 18 -5 25 -2 25 9 0 8 -7 15 -16 15 -10 0 -13 6 -9 19 3 12 0 21
-10 24 -12 5 -9 20 20 88 19 46 33 84 31 86 -5 6 -74 -138 -82 -170 -4 -16
-16 -32 -28 -37 -29 -13 -48 -30 -69 -63 -27 -42 -57 -144 -57 -194 0 -24 -7
-60 -15 -80 -17 -41 -19 -53 -6 -53 13 0 29 52 37 121 7 59 7 60 19 33 6 -16
19 -60 29 -99 10 -38 26 -83 36 -100 19 -31 18 -36 -8 -204 l-7 -44 -32 30
c-38 35 -58 102 -66 215 -3 49 -13 49 -20 1 -4 -22 -19 -52 -37 -71 -16 -18
-30 -38 -30 -43 0 -5 -4 -17 -10 -27 -16 -28 -60 -175 -59 -197 0 -11 12 16
25 60 41 132 89 225 115 225 6 0 7 -15 3 -35 -3 -20 -2 -41 4 -48 13 -16 1
-89 -16 -95 -7 -2 -12 5 -12 17 0 12 -4 21 -10 21 -5 0 -10 -13 -10 -29 0 -16
-12 -54 -26 -85 -20 -45 -26 -76 -30 -158 -2 -57 -9 -140 -15 -186 -6 -45 -9
-102 -5 -125 3 -23 8 -87 11 -142 3 -55 8 -122 12 -150 3 -27 5 -66 3 -85 -7
-86 -4 -129 13 -147 13 -16 16 -32 11 -89 -3 -38 -8 -85 -11 -104 l-6 -35 -13
50 c-7 28 -19 76 -28 108 -9 32 -16 69 -16 82 0 69 -35 12 -85 -139 -13 -39
-42 -124 -64 -189 -27 -79 -43 -146 -47 -199 -6 -73 -9 -79 -21 -62 -8 10 -21
36 -30 57 -19 47 -30 47 -39 1 -11 -59 4 -159 32 -213 16 -31 29 -77 34 -123
5 -40 16 -88 26 -107 15 -30 18 -32 29 -18 7 10 17 17 23 17 6 0 0 11 -13 25
-16 15 -25 36 -25 55 l0 31 29 -20 c16 -12 34 -21 40 -21 6 0 11 -4 11 -9 0
-5 11 -12 24 -15 13 -3 32 -9 43 -12 10 -3 -6 7 -34 23 -116 62 -193 171 -201
285 -6 80 0 88 32 35 15 -26 39 -55 54 -64 15 -9 45 -28 67 -43 44 -29 120
-70 175 -93 100 -43 199 -56 380 -50 210 7 341 48 475 151 33 25 62 49 65 52
16 19 105 80 116 80 8 0 14 -9 14 -19 0 -11 10 -27 22 -35 76 -53 137 28 102
135 -12 36 -14 56 -7 68 10 16 -2 87 -18 105 -13 15 -11 -6 6 -53 11 -33 12
-41 1 -41 -17 0 -42 29 -50 58 -4 12 -12 22 -17 22 -6 0 -7 5 -4 10 3 6 1 10
-5 10 -11 0 -40 59 -40 81 0 8 4 8 15 -1 9 -8 15 -9 15 -2 0 6 -5 14 -11 18
-6 3 -8 16 -6 28 3 11 1 30 -3 41 -5 11 -9 16 -10 10 -1 -5 -8 8 -16 30 -13
36 -14 37 -9 8 3 -25 1 -33 -11 -33 -13 0 -13 -4 1 -30 9 -17 20 -53 25 -82 6
-28 30 -95 54 -148 25 -53 48 -109 52 -124 7 -28 7 -28 -19 -12 -18 13 -26 14
-29 5 -6 -17 -36 50 -48 103 -20 97 -66 230 -92 267 -13 18 -13 33 -1 113 16
108 13 124 -18 107 -12 -6 -43 -9 -71 -7 -27 3 -46 2 -41 -3 4 -4 29 -9 54
-11 l46 -3 -13 -65 c-15 -73 -11 -95 50 -240 20 -46 36 -98 36 -115 0 -24 -10
-12 -51 70 -28 55 -63 114 -79 130 -15 17 -61 80 -101 140 -41 61 -79 116 -86
123 -12 12 -83 155 -83 166 0 3 8 2 18 -1 15 -6 15 -5 3 10 -12 15 -11 17 10
17 23 0 22 1 -7 19 -53 32 -71 65 -78 139 -13 148 -12 157 9 159 15 2 39 -26
101 -120 80 -121 101 -140 129 -117 13 10 12 14 -4 29 -25 21 -134 182 -128
187 7 7 165 -34 200 -51 17 -8 36 -15 44 -15 11 0 11 -5 -1 -28 -13 -26 -13
-28 10 -39 23 -10 26 -9 36 15 6 15 10 33 9 40 -2 10 6 12 28 7 29 -6 32 -4
37 24 8 37 24 31 24 -8 0 -19 -8 -34 -22 -44 -23 -14 -23 -14 17 -33 30 -15
41 -26 43 -47 2 -18 -2 -29 -12 -33 -17 -7 -22 -44 -6 -44 6 0 10 -6 10 -14 0
-7 9 -25 21 -40 21 -26 62 -35 74 -16 12 20 47 9 81 -25 18 -19 38 -35 44 -35
5 0 10 -6 10 -12 0 -10 2 -10 8 -2 4 7 18 14 32 15 14 2 29 14 35 26 8 20 48
37 60 25 3 -3 3 -42 0 -86 -3 -63 -2 -72 5 -41 5 22 9 60 9 85 1 64 38 138 72
145 15 4 35 18 45 33 l17 27 -25 -22 c-32 -30 -44 -29 -24 2 13 19 13 23 2 19
-8 -3 -17 -1 -21 5 -3 6 -2 11 3 11 15 0 2 47 -18 65 -25 22 -35 2 -20 -36 16
-37 -1 -104 -28 -112 -9 -2 -25 -8 -34 -12 -11 -4 -18 -3 -18 4 0 7 8 15 18
18 51 20 62 84 21 129 -10 11 -19 30 -19 43 0 56 -66 -15 -85 -91 -6 -23 -2
-33 25 -58 28 -26 29 -30 12 -30 -11 0 -30 8 -43 18 -27 23 -29 65 -5 116 26
55 15 81 -13 31 -12 -22 -30 -53 -39 -70 -9 -16 -17 -31 -18 -33 0 -1 -18 5
-40 15 -31 13 -35 18 -19 20 21 4 58 66 69 114 5 23 12 27 53 32 52 6 66 1 43
-13 -21 -13 -9 -17 25 -9 18 4 22 7 10 8 -15 1 -16 4 -7 13 20 20 14 36 -13
30 -14 -2 -25 0 -25 6 0 17 -33 23 -70 11 -83 -24 -119 -19 -141 22 -14 28 11
55 65 71 23 7 56 20 74 30 50 27 97 24 120 -9 25 -35 62 -117 62 -136 0 -8 7
-21 16 -28 9 -8 25 -33 35 -56 10 -24 25 -43 32 -43 8 0 19 -10 25 -22 6 -13
11 -17 11 -10 1 8 -15 32 -34 54 -19 22 -44 69 -57 104 -13 35 -26 64 -30 64
-12 0 -49 80 -43 90 7 12 -35 70 -51 70 -6 0 -17 7 -24 15 -7 8 -19 15 -27 15
-12 0 -13 -3 -4 -14 15 -18 4 -24 -40 -27 -34 -3 -74 19 -121 64 -10 10 -23
15 -28 12 -6 -4 -10 -1 -10 5 0 6 -4 8 -10 5 -5 -3 -10 1 -10 9 0 9 -7 16 -15
16 -17 0 -21 16 -5 22 5 2 -5 19 -23 38 -18 19 -40 46 -50 59 -12 18 -28 26
-57 28 -40 4 -41 4 -29 -19 51 -96 185 -238 223 -238 10 0 15 -4 11 -9 -3 -5
3 -11 12 -13 27 -5 -64 -54 -104 -56 -18 -1 -33 1 -33 5 0 5 -14 22 -30 40
-17 18 -30 38 -30 46 0 8 -9 26 -20 40 -11 14 -20 35 -20 47 0 12 -5 18 -10
15 -6 -3 -13 1 -16 9 -3 9 -10 14 -14 11 -4 -3 -10 5 -14 18 -7 28 -62 94 -71
86 -9 -9 37 -98 51 -99 14 0 24 -33 24 -78 0 -30 -2 -32 -27 -26 -15 4 -32 11
-38 16 -5 5 -23 17 -40 27 -33 20 -75 90 -75 126 0 13 7 31 16 40 15 15 14 16
-24 12 -23 -2 -39 0 -36 5 3 4 0 8 -5 8 -6 0 -11 5 -11 10 0 6 7 10 16 10 8 0
13 4 10 8 -6 10 96 8 113 -2 6 -4 11 -3 11 2 0 5 -15 14 -32 20 l-33 10 30 1
30 1 -32 20 c-29 17 -39 32 -30 43 7 11 -29 37 -52 38 -22 0 -23 2 -7 8 18 7
18 8 2 14 -10 4 -25 7 -34 6 -12 0 -13 -2 -4 -6 10 -4 9 -8 -5 -19 -17 -13
-17 -13 4 -14 28 0 53 -10 53 -21 0 -5 -13 -9 -29 -9 -15 0 -39 -9 -52 -19
-14 -10 -41 -26 -61 -34 -31 -13 -37 -13 -42 -1 -3 7 -12 11 -20 8 -8 -3 -21
4 -29 17 -10 13 -22 19 -31 16 -24 -9 -27 8 -6 33 10 12 22 34 25 50 15 68
133 122 177 80 23 -21 48 -27 48 -10 0 6 9 10 20 10 17 0 20 7 21 43 1 38 1
50 -4 82 -1 6 36 15 83 21 59 7 76 12 55 15 -17 3 -41 2 -55 -2 -14 -4 -47 -7
-75 -7 l-50 0 40 14 c39 13 39 13 -30 8 -38 -4 -85 -13 -104 -20 -46 -19 -62
-17 -29 3 15 10 30 24 33 32 5 13 -15 13 -75 -1 -9 -2 -14 3 -12 14 1 9 -2 19
-7 23 -12 7 -4 33 17 57 17 20 53 19 100 -4 18 -9 34 -12 38 -7 3 5 14 4 27
-3 20 -10 21 -10 8 6 -12 15 -12 20 6 44 36 49 70 135 132 327 63 198 88 321
59 298 -8 -7 -27 -36 -43 -65 -16 -29 -39 -66 -52 -82 -13 -16 -21 -31 -18
-34 9 -9 30 18 59 73 14 27 26 43 26 35 0 -37 -23 -89 -75 -166 -30 -46 -60
-95 -65 -109 -12 -32 -34 -34 -24 -2 4 12 15 33 26 46 10 13 16 27 12 30 -3 3
-12 -3 -20 -13 -20 -29 -28 -12 -9 18 10 14 13 26 7 26 -15 0 -49 -46 -74 -99
-28 -61 -31 -42 -20 110 8 97 16 139 37 192 15 37 25 71 21 74 -3 4 -6 1 -6
-6z m-366 -694 c-13 -62 -22 -76 -43 -70 -12 3 -21 14 -21 25 0 19 23 72 43
96 16 20 30 -12 21 -51z m45 -170 c-17 -38 -29 -34 -18 5 5 18 9 35 9 37 0 3
5 0 10 -5 8 -8 7 -19 -1 -37z m311 38 c0 -7 -57 -35 -72 -35 -7 0 1 9 17 20
28 19 55 26 55 15z m10 -325 c0 -5 -8 -10 -17 -10 -15 0 -16 2 -3 10 19 12 20
12 20 0z m-193 -76 c-7 -7 -46 35 -47 51 0 5 12 -3 27 -17 15 -15 24 -30 20
-34z m133 37 c0 -5 -12 -11 -27 -14 -26 -5 -26 -4 -8 9 22 16 35 18 35 5z
m-302 -44 c-1 -2 2 -10 9 -18 6 -8 18 -48 27 -90 9 -42 18 -85 22 -95 4 -14 1
-13 -15 6 -25 31 -55 115 -47 135 3 9 1 26 -4 39 -5 13 -6 27 -3 30 7 6 17 0
11 -7z m226 -24 c11 5 16 1 16 -13 0 -11 5 -20 10 -20 6 0 10 7 10 15 0 17 9
19 30 5 13 -8 13 -10 -2 -10 -11 0 -15 -5 -12 -15 5 -11 -2 -15 -26 -15 -37 0
-72 32 -63 57 4 11 8 12 13 2 5 -6 15 -9 24 -6z m-354 -15 c0 -19 -2 -20 -10
-8 -13 19 -13 30 0 30 6 0 10 -10 10 -22z m475 3 c-3 -6 -11 -11 -17 -11 -6 0
-6 6 2 15 14 17 26 13 15 -4z m11 -77 c5 -19 12 -24 25 -21 11 3 16 1 13 -4
-5 -9 93 -109 107 -109 3 0 22 -15 41 -32 20 -18 43 -39 52 -46 27 -22 18 -33
-14 -17 -16 8 -37 15 -47 14 -11 0 -13 -3 -5 -6 17 -7 36 -43 22 -43 -5 0 -10
7 -10 15 0 8 -6 15 -13 15 -7 0 -22 7 -33 15 -16 13 -17 16 -4 25 13 8 13 10
-2 10 -10 0 -18 5 -18 10 0 6 -11 10 -25 10 -57 0 -174 72 -155 95 7 8 4 17
-10 30 -25 22 -26 35 -2 35 9 0 26 7 36 15 27 21 35 19 42 -11z m-276 -276
c-19 -7 -20 -13 -15 -88 4 -47 2 -80 -3 -80 -15 0 -22 26 -22 76 0 30 -5 46
-15 50 -19 8 -19 44 1 72 l15 22 30 -22 c28 -21 29 -23 9 -30z m561 10 c0 -10
2 -10 6 0 6 16 33 15 56 -2 22 -17 22 -29 -3 -51 -19 -17 -20 -17 -20 -1 0 9
-4 15 -9 12 -11 -7 -73 39 -64 47 11 12 33 8 34 -5z m119 -48 c0 -5 -7 -10
-15 -10 -8 0 -15 5 -15 10 0 6 7 10 15 10 8 0 15 -4 15 -10z m105 -87 c21 -10
38 -27 42 -41 3 -15 11 -21 20 -18 19 8 28 -21 13 -39 -11 -13 -14 -13 -26 2
-8 11 -13 13 -14 6 0 -7 -8 -13 -18 -13 -31 0 -50 23 -57 73 -3 26 -4 47 -1
47 3 0 21 -8 41 -17z m21 -247 c0 -13 -4 -22 -8 -20 -4 3 -11 -4 -17 -13 -16
-29 -24 -7 -10 26 16 37 37 41 35 7z m294 -35 c0 -13 -29 -35 -37 -28 -7 8 15
37 28 37 5 0 9 -4 9 -9z m-130 -26 c10 -13 9 -15 -9 -15 -12 0 -21 6 -21 15 0
8 4 15 9 15 5 0 14 -7 21 -15z m-1393 -467 c-3 -8 -6 -5 -6 6 -1 11 2 17 5 13
3 -3 4 -12 1 -19z m933 -17 c0 7 8 3 17 -11 28 -39 85 -161 79 -168 -3 -3 -6
-1 -6 5 0 6 -6 13 -14 16 -21 8 -8 -27 20 -54 32 -30 30 -38 -8 -30 -37 8 -60
37 -39 50 9 6 10 11 2 15 -6 4 -11 2 -11 -5 0 -28 -20 9 -44 83 -31 90 -33
117 -11 98 12 -10 15 -10 15 1z m-923 -43 c-3 -7 -5 -2 -5 12 0 14 2 19 5 13
2 -7 2 -19 0 -25z m-10 -60 c-3 -8 -6 -5 -6 6 -1 11 2 17 5 13 3 -3 4 -12 1
-19z m-97 -78 c0 -5 -4 -10 -10 -10 -5 0 -10 5 -10 10 0 6 5 10 10 10 6 0 10
-4 10 -10z m1339 -84 c-3 -3 -11 5 -18 17 -13 21 -12 21 5 5 10 -10 16 -20 13
-22z m-1352 -45 c-18 -36 -11 -92 12 -89 9 2 16 -4 17 -12 0 -8 4 -23 9 -33
12 -29 -3 -32 -16 -3 -13 28 -46 38 -35 10 4 -10 1 -14 -6 -12 -7 3 -13 14
-12 26 3 115 5 123 15 116 8 -5 10 1 6 18 -8 30 3 45 16 23 5 -10 3 -26 -6
-44z m1338 -82 c5 -5 -4 -9 -23 -9 -22 0 -32 5 -32 16 0 11 6 14 23 9 12 -4
26 -11 32 -16z m-1244 -91 c10 -10 27 -18 37 -18 10 0 22 -3 26 -7 4 -5 13 -8
19 -8 7 0 13 -10 15 -21 2 -12 11 -25 20 -28 34 -13 67 -36 51 -36 -30 0 -209
102 -209 119 0 5 3 17 7 27 5 14 8 15 11 3 3 -7 13 -22 23 -31z"/>
<path d="M3804 4460 c-29 -12 -54 -49 -54 -80 1 -24 2 -23 19 9 36 68 85 75
218 32 190 -63 278 -84 363 -87 47 -1 171 -11 277 -20 203 -19 211 -19 503 21
137 19 213 11 266 -30 49 -37 65 -75 67 -159 3 -93 17 -89 17 4 0 74 -9 106
-37 140 -23 27 -109 76 -148 84 -35 7 -165 -6 -285 -29 -115 -23 -288 -24
-332 -2 -60 29 -66 31 -171 48 -81 14 -159 5 -150 -17 3 -8 -1 -14 -10 -14 -8
0 -17 6 -20 13 -3 9 -9 9 -29 -2 -32 -16 -109 -1 -295 59 -123 40 -160 46
-199 30z m656 -85 c0 -8 -6 -15 -14 -15 -17 0 -28 14 -19 24 12 12 33 6 33 -9z
m-60 -5 c0 -5 -4 -10 -9 -10 -6 0 -13 5 -16 10 -3 6 1 10 9 10 9 0 16 -4 16
-10z m114 4 c25 -9 19 -24 -9 -24 -16 0 -25 6 -25 15 0 16 9 19 34 9z m63 -31
c-3 -3 -11 -2 -17 2 -9 6 -9 10 1 16 14 8 27 -7 16 -18z m52 -4 c-15 -9 -32
-2 -24 11 3 5 13 6 21 3 12 -4 13 -8 3 -14z"/>
<path d="M2995 4350 c-3 -5 -1 -10 4 -10 6 0 11 5 11 10 0 6 -2 10 -4 10 -3 0
-8 -4 -11 -10z"/>
<path d="M2946 4282 c-3 -6 3 -12 15 -15 12 -3 19 -1 16 6 -5 15 -24 20 -31 9z"/>
<path d="M4230 4174 c-15 -35 -20 -66 -19 -132 1 -90 15 -75 18 19 1 56 25
139 43 150 10 7 8 9 -5 9 -12 0 -24 -16 -37 -46z"/>
<path d="M4766 4193 c4 -16 20 -54 35 -85 16 -32 29 -68 29 -80 0 -51 16 -52
61 -3 54 58 65 75 46 75 -7 0 -23 14 -36 30 -28 39 -98 90 -123 90 -15 0 -17
-5 -12 -27z"/>
<path d="M2870 4151 c-12 -24 -13 -34 -1 -27 9 6 22 46 15 46 -2 0 -8 -9 -14
-19z"/>
<path d="M4270 4076 c0 -13 105 -56 135 -56 41 0 21 17 -41 34 -27 8 -59 17
-71 21 -13 4 -23 4 -23 1z"/>
<path d="M4530 4031 c0 -5 7 -12 16 -15 23 -9 174 5 174 15 0 5 -43 9 -95 9
-52 0 -95 -4 -95 -9z"/>
<path d="M4908 4006 c-23 -17 -23 -26 0 -26 10 0 23 -5 30 -12 17 -17 16 12 0
35 -11 13 -16 14 -30 3z"/>
<path d="M4383 3996 c9 -7 17 -16 17 -20 0 -3 -8 -6 -17 -6 -11 -1 -7 -6 12
-14 36 -16 45 -12 44 17 0 12 -3 16 -6 10 -2 -7 -9 -13 -14 -13 -6 0 -7 5 -3
11 7 13 -13 29 -36 29 -12 -1 -12 -3 3 -14z"/>
<path d="M4296 3985 c-3 -10 1 -15 13 -15 11 0 26 -3 35 -6 12 -4 16 0 16 15
0 17 -6 21 -29 21 -16 0 -31 -6 -35 -15z"/>
<path d="M4550 3991 c0 -6 -9 -11 -20 -11 -11 0 -20 -5 -20 -11 0 -7 10 -9 24
-5 14 3 27 2 30 -3 11 -16 94 -21 122 -6 l27 14 -24 5 c-13 3 -37 7 -54 10
-16 3 -42 8 -57 12 -18 4 -28 2 -28 -5z m103 -28 c-7 -2 -19 -2 -25 0 -7 3 -2
5 12 5 14 0 19 -2 13 -5z"/>
<path d="M4880 3952 c0 -4 4 -23 10 -42 6 -22 6 -38 0 -44 -6 -6 -10 -14 -10
-19 0 -5 11 5 25 21 22 26 24 34 14 56 -11 23 -39 44 -39 28z"/>
<path d="M4598 3923 c6 -2 18 -2 25 0 6 3 1 5 -13 5 -14 0 -19 -2 -12 -5z"/>
<path d="M4265 3771 c-3 -12 -3 -30 0 -42 6 -19 8 -19 19 -3 10 13 17 14 34 5
23 -12 52 -60 52 -85 0 -8 5 -18 11 -22 8 -5 10 3 7 24 -5 37 0 39 88 42 44 1
64 -3 74 -15 11 -13 8 -17 -19 -26 -33 -12 -42 -29 -15 -29 8 0 32 16 52 35
38 36 67 45 75 23 6 -18 24 0 32 33 8 34 -15 55 -44 40 -25 -14 -82 -14 -118
0 -22 8 -24 12 -13 19 13 8 13 10 -1 10 -22 0 -73 -56 -63 -71 5 -9 2 -10 -10
-6 -10 4 -27 7 -38 7 -19 0 -20 4 -14 43 4 26 3 37 -3 28 -9 -13 -42 -12 -83
4 -11 4 -18 0 -23 -14z"/>
<path d="M3200 3746 c0 -2 7 -7 16 -10 8 -3 12 -2 9 4 -6 10 -25 14 -25 6z"/>
<path d="M4860 3721 c0 -25 6 -27 13 -6 4 8 2 17 -3 20 -6 4 -10 -3 -10 -14z"/>
<path d="M3230 3710 c-12 -8 -9 -10 13 -10 16 0 26 4 22 10 -8 12 -16 12 -35
0z"/>
<path d="M4955 3614 l-110 -13 104 4 c57 3 109 9 115 15 5 5 8 9 6 8 -3 0 -54
-7 -115 -14z"/>
<path d="M4438 3583 c7 -3 16 -2 19 1 4 3 -2 6 -13 5 -11 0 -14 -3 -6 -6z"/>
<path d="M4485 3556 c-19 -8 -40 -10 -59 -5 -27 8 -28 7 -12 -10 9 -9 16 -25
16 -34 0 -9 3 -17 8 -17 4 0 18 -3 31 -7 17 -4 22 -3 17 5 -4 7 2 22 13 34 12
12 21 28 21 35 0 15 3 15 -35 -1z"/>
<path d="M3480 3470 c0 -5 5 -10 10 -10 6 0 10 5 10 10 0 6 -4 10 -10 10 -5 0
-10 -4 -10 -10z"/>
<path d="M3515 3460 c6 -19 4 -22 -9 -17 -20 8 -20 -2 0 -31 18 -27 30 -28 38
-4 3 9 11 25 18 34 15 20 12 24 -26 34 -26 6 -28 5 -21 -16z"/>
<path d="M3045 3390 c-8 -13 5 -13 25 0 13 8 13 10 -2 10 -9 0 -20 -4 -23 -10z"/>
<path d="M3258 3353 c7 -3 17 -16 22 -29 11 -27 33 -33 23 -6 -7 20 -32 42
-47 41 -6 0 -5 -3 2 -6z"/>
<path d="M4834 3324 c3 -9 9 -40 12 -70 4 -30 10 -54 13 -54 3 0 16 25 27 56
20 50 20 56 5 60 -9 3 -24 10 -33 15 -25 13 -31 11 -24 -7z"/>
<path d="M4388 3289 c13 -12 186 -19 202 -9 11 7 -2 10 -45 12 -128 3 -164 3
-157 -3z"/>
<path d="M4640 3280 c-46 -35 -144 -47 -202 -25 -10 4 -18 3 -18 -3 0 -14 56
-32 101 -32 43 0 118 29 138 54 20 24 9 28 -19 6z"/>
<path d="M3188 3263 c7 -3 16 -2 19 1 4 3 -2 6 -13 5 -11 0 -14 -3 -6 -6z"/>
<path d="M2 1627 l-2 -1627 1393 3 c765 2 1406 6 1422 10 24 5 25 5 5 -2 -15
-5 57 -8 180 -8 113 0 187 2 165 3 -22 2 -73 9 -113 15 -41 6 -90 13 -109 15
-31 4 -92 16 -143 29 -8 3 -46 11 -85 20 -71 15 -194 50 -230 65 -11 4 -58 20
-104 34 -46 15 -98 33 -115 40 -17 8 -56 24 -86 36 -90 37 -229 104 -315 152
-44 25 -102 57 -130 73 -102 57 -332 219 -454 320 -140 115 -370 348 -483 487
-450 556 -718 1207 -791 1928 -2 19 -5 -697 -5 -1593z m2535 -1513 c-3 -3 -12
-4 -19 -1 -8 3 -5 6 6 6 11 1 17 -2 13 -5z m53 -14 c8 -5 11 -10 5 -10 -5 0
-17 5 -25 10 -8 5 -10 10 -5 10 6 0 17 -5 25 -10z m345 -80 c8 -13 -15 -13
-35 0 -12 8 -11 10 7 10 12 0 25 -4 28 -10z"/>
<path d="M7100 3213 c0 -21 -9 -99 -20 -173 -112 -763 -465 -1465 -1010 -2010
-473 -474 -1079 -808 -1735 -956 -92 -20 -268 -50 -400 -67 -16 -2 691 -5
1573 -6 l1602 -1 0 1625 c0 894 -2 1625 -5 1625 -3 0 -5 -17 -5 -37z"/>
<path d="M3640 3211 c0 -6 4 -13 10 -16 6 -3 7 1 4 9 -7 18 -14 21 -14 7z"/>
<path d="M4710 3132 c-8 -3 -23 -16 -33 -29 -10 -12 -26 -23 -35 -23 -27 -1
-101 -39 -76 -40 11 0 29 7 40 15 29 22 45 19 35 -7 -5 -13 -11 -52 -15 -88
l-7 -66 62 -13 c34 -7 65 -9 69 -4 4 4 24 52 44 106 30 80 35 102 25 113 -23
28 -81 47 -109 36z"/>
<path d="M4380 3108 c0 -7 5 -20 10 -28 8 -12 10 -11 10 7 0 12 -4 25 -10 28
-5 3 -10 0 -10 -7z"/>
<path d="M3750 3073 c0 -5 10 -18 23 -29 l22 -19 -20 25 c-11 14 -21 27 -22
29 -2 2 -3 0 -3 -6z"/>
<path d="M2417 3052 c-15 -17 -15 -18 3 -19 14 -1 20 5 20 18 0 24 -3 24 -23
1z"/>
<path d="M2416 2969 c-8 -42 0 -50 9 -9 4 17 5 34 2 36 -2 3 -7 -10 -11 -27z"/>
<path d="M3764 2876 c10 -8 34 -29 53 -46 19 -18 37 -30 40 -27 8 9 -65 75
-90 82 -21 6 -21 5 -3 -9z"/>
<path d="M4591 2844 c-28 -35 -29 -109 -2 -123 27 -15 94 -23 108 -13 7 4 14
29 15 55 2 26 6 47 11 47 18 0 4 38 -18 48 -45 21 -91 15 -114 -14z"/>
<path d="M5438 2733 c-2 -10 -1 -34 2 -53 6 -33 7 -32 11 18 4 49 -4 72 -13
35z"/>
<path d="M4527 2641 c-23 -78 -34 -141 -57 -346 -23 -200 -65 -482 -79 -528
-5 -18 -12 -54 -16 -82 -3 -27 -15 -74 -27 -103 -20 -50 -20 -53 -3 -72 16
-18 16 -22 2 -51 -10 -21 -27 -36 -50 -44 -29 -10 -34 -10 -30 1 3 8 14 14 25
14 13 0 18 5 15 14 -3 8 -2 16 3 18 19 6 -2 48 -24 48 -33 0 -110 26 -114 38
-2 6 -11 3 -23 -9 -25 -25 -31 -24 -68 7 -16 14 -33 25 -36 25 -36 -4 -43 0
-38 22 5 21 5 22 -10 2 -12 -15 -18 -17 -29 -7 -8 6 -18 8 -23 4 -4 -4 -5 7
-1 23 5 25 -1 37 -37 79 l-43 49 -24 -34 c-13 -19 -30 -38 -37 -42 -22 -14
-15 -47 13 -57 14 -6 30 -8 35 -4 5 3 9 -4 9 -15 0 -15 9 -21 40 -26 22 -4 40
-12 40 -19 0 -11 69 -30 208 -55 43 -8 60 -17 50 -26 -3 -3 -76 9 -164 26
-207 41 -298 46 -339 19 -32 -21 -27 -27 6 -9 12 6 28 7 37 3 9 -4 25 -6 35
-5 10 1 17 -4 17 -13 0 -10 9 -16 25 -16 14 0 25 5 25 10 0 15 26 12 40 -5 18
-21 44 -20 35 3 -5 14 -4 15 6 5 26 -26 -7 -31 -141 -18 -135 12 -163 9 -174
-20 -9 -25 -26 -17 -27 13 0 15 -4 36 -9 47 -7 16 -9 13 -9 -15 -1 -41 -33
-76 -141 -154 -66 -47 -262 -139 -335 -158 -50 -12 -275 -15 -420 -6 l-110 8
110 -21 c105 -19 287 -26 343 -12 12 3 22 1 22 -5 0 -16 88 -21 135 -6 24 7
88 16 141 20 78 6 104 12 132 31 32 21 37 22 52 8 18 -17 30 -9 43 28 6 16 9
16 29 4 26 -17 157 -30 175 -19 16 10 83 3 83 -9 0 -5 -7 -9 -17 -9 -9 0 -14
-2 -12 -5 5 -4 61 -10 199 -21 41 -3 80 -10 86 -15 11 -9 52 -2 70 12 6 5 24
8 40 8 16 0 38 0 49 0 11 1 31 1 43 1 35 0 42 8 42 45 0 49 9 68 26 54 11 -9
16 -5 25 17 6 16 17 41 25 56 18 34 18 43 -2 27 -14 -11 -19 -9 -35 11 -23 30
-23 34 -4 50 8 7 15 20 15 29 0 10 12 28 26 40 24 21 28 22 36 7 10 -17 54
-21 77 -7 7 5 15 31 17 57 2 27 8 83 13 124 6 41 15 131 21 200 15 171 68 511
92 588 11 35 27 95 37 133 l17 69 -26 0 c-15 0 -49 7 -76 15 -27 8 -51 15 -54
15 -3 0 -13 -27 -23 -59z m-310 -1147 c-3 -3 -12 -4 -19 -1 -8 3 -5 6 6 6 11
1 17 -2 13 -5z m-215 -26 c-9 -9 -15 -9 -24 0 -9 9 -7 12 12 12 19 0 21 -3 12
-12z m101 -29 c30 -17 5 -24 -35 -10 -17 6 -46 11 -64 11 -18 0 -35 4 -38 8
-8 13 111 4 137 -9z m96 -119 c-10 -28 -19 -60 -20 -73 0 -12 -3 -16 -6 -9 -9
23 26 132 42 132 2 0 -5 -23 -16 -50z m67 4 c-8 -22 -17 -48 -19 -59 -3 -12
-5 -6 -6 13 0 19 7 47 16 63 23 38 27 30 9 -17z m-576 1 c47 -8 146 -24 220
-35 183 -28 193 -31 183 -40 -4 -5 -39 -3 -78 4 -38 8 -104 16 -145 20 -95 8
-300 48 -300 58 0 11 24 10 120 -7z m-186 -44 c11 -16 -18 -41 -41 -35 -13 4
-23 10 -23 14 0 5 9 6 20 3 14 -4 20 0 20 11 0 17 15 22 24 7z m569 -86 c-3
-9 -8 -14 -10 -11 -3 3 -2 9 2 15 9 16 15 13 8 -4z"/>
<path d="M5335 2590 c-10 -11 -16 -22 -13 -25 3 -3 13 6 22 20 20 30 16 32 -9
5z"/>
<path d="M3150 2566 c0 -2 7 -7 16 -10 8 -3 12 -2 9 4 -6 10 -25 14 -25 6z"/>
<path d="M3350 2550 c-9 -6 -10 -10 -3 -10 6 0 15 5 18 10 8 12 4 12 -15 0z"/>
<path d="M2365 2459 c-9 -17 -14 -33 -11 -36 3 -3 8 2 12 11 3 9 12 16 20 16
8 0 14 9 14 20 0 30 -17 24 -35 -11z"/>
<path d="M3498 2483 c7 -3 16 -2 19 1 4 3 -2 6 -13 5 -11 0 -14 -3 -6 -6z"/>
<path d="M3160 2463 c0 -11 7 -26 15 -33 11 -9 14 -22 10 -42 -7 -31 16 -68
42 -68 8 0 13 -12 13 -35 0 -29 4 -36 25 -41 14 -4 29 -4 32 -1 3 3 -7 9 -22
13 -24 6 -26 11 -23 41 4 29 0 36 -19 44 -29 11 -39 35 -23 54 11 13 9 20 -11
43 -13 15 -27 31 -31 37 -5 5 -8 0 -8 -12z"/>
<path d="M3338 2443 c7 -3 16 -2 19 1 4 3 -2 6 -13 5 -11 0 -14 -3 -6 -6z"/>
<path d="M3140 2416 c0 -2 7 -9 15 -16 13 -11 14 -10 9 4 -5 14 -24 23 -24 12z"/>
<path d="M2309 2383 c-40 -46 -61 -73 -55 -73 7 0 43 39 68 73 25 35 19 35
-13 0z"/>
<path d="M1276 2383 c-3 -3 -6 -11 -6 -17 0 -6 5 -4 10 4 8 12 10 9 10 -13 0
-28 -22 -60 -50 -70 -10 -4 -8 -6 6 -6 26 -1 54 38 54 73 0 25 -12 40 -24 29z"/>
<path d="M1733 2372 c-13 -2 -23 -10 -23 -17 0 -9 6 -12 18 -8 11 4 7 -3 -10
-20 -40 -37 -34 -43 10 -10 20 15 39 28 40 29 12 8 -17 29 -35 26z"/>
<path d="M2401 2334 c0 -11 3 -14 6 -6 3 7 2 16 -1 19 -3 4 -6 -2 -5 -13z"/>
<path d="M3830 2310 c-9 -6 -10 -10 -3 -10 6 0 15 5 18 10 8 12 4 12 -15 0z"/>
<path d="M2007 2271 c-9 -16 -17 -33 -17 -38 0 -4 9 7 21 26 11 18 18 35 17
37 -2 2 -12 -10 -21 -25z"/>
<path d="M3479 2269 c-22 -17 -23 -19 -7 -31 10 -8 19 -33 23 -63 5 -47 25
-89 25 -53 0 8 6 21 14 27 12 10 12 16 -1 42 -8 17 -13 40 -11 53 7 35 -14 47
-43 25z"/>
<path d="M2203 2248 c-12 -15 -27 -58 -19 -58 6 0 37 62 32 67 -2 2 -8 -2 -13
-9z"/>
<path d="M1195 2165 c-18 -84 -17 -130 4 -130 18 0 49 52 50 83 1 32 -11 27
-37 -16 -17 -28 -21 -31 -16 -12 3 14 12 38 20 54 16 33 19 82 5 90 -5 3 -17
-28 -26 -69z"/>
<path d="M2353 2228 c-12 -15 -24 -48 -18 -48 2 0 10 14 19 30 15 32 15 38 -1
18z"/>
<path d="M5430 2203 c0 -15 19 -37 26 -31 3 4 -1 14 -10 23 -9 9 -16 13 -16 8z"/>
<path d="M2159 2154 c-41 -106 -59 -168 -69 -229 -6 -38 -17 -102 -25 -142
-16 -79 -19 -196 -5 -228 6 -15 9 -6 9 32 2 155 46 400 96 543 17 48 12 69 -6
24z"/>
<path d="M1236 2048 c-11 -24 -11 -36 -2 -50 21 -34 36 -21 36 32 0 57 -15 65
-34 18z"/>
<path d="M1941 2064 c0 -11 3 -14 6 -6 3 7 2 16 -1 19 -3 4 -6 -2 -5 -13z"/>
<path d="M1511 2034 c0 -11 3 -14 6 -6 3 7 2 16 -1 19 -3 4 -6 -2 -5 -13z"/>
<path d="M1180 1973 c0 -13 5 -23 10 -23 13 0 13 11 0 30 -8 12 -10 11 -10 -7z"/>
<path d="M1315 1950 c-3 -5 1 -10 10 -10 9 0 13 5 10 10 -3 6 -8 10 -10 10 -2
0 -7 -4 -10 -10z"/>
<path d="M1193 1933 c9 -2 23 -2 30 0 6 3 -1 5 -18 5 -16 0 -22 -2 -12 -5z"/>
<path d="M1902 1885 c0 -16 2 -22 5 -12 2 9 2 23 0 30 -3 6 -5 -1 -5 -18z"/>
<path d="M2191 1836 c-18 -43 -31 -91 -30 -113 l1 -38 8 35 c5 20 18 57 29 84
12 26 21 56 21 67 0 10 5 19 10 19 6 0 10 5 10 10 0 30 -22 1 -49 -64z"/>
<path d="M1435 1859 c-4 -6 -5 -12 -2 -15 2 -3 7 2 10 11 7 17 1 20 -8 4z"/>
<path d="M5390 1821 c20 -39 47 -40 35 -2 -3 12 -15 21 -26 21 -16 0 -18 -3
-9 -19z"/>
<path d="M1878 1814 c-3 -5 1 -27 8 -49 l12 -40 1 35 c1 35 -13 69 -21 54z"/>
<path d="M3788 1813 c7 -3 16 -2 19 1 4 3 -2 6 -13 5 -11 0 -14 -3 -6 -6z"/>
<path d="M1411 1774 c0 -11 3 -14 6 -6 3 7 2 16 -1 19 -3 4 -6 -2 -5 -13z"/>
<path d="M5240 1679 c0 -21 33 -80 49 -89 21 -11 44 2 48 28 2 15 -6 24 -27
34 -17 7 -30 17 -30 23 0 5 -5 3 -10 -5 -8 -13 -10 -12 -10 3 0 9 -4 17 -10
17 -5 0 -10 -5 -10 -11z"/>
<path d="M4030 1615 c0 -8 4 -15 10 -15 5 0 7 7 4 15 -4 8 -8 15 -10 15 -2 0
-4 -7 -4 -15z"/>
<path d="M3750 1600 c0 -5 5 -10 11 -10 5 0 7 5 4 10 -3 6 -8 10 -11 10 -2 0
-4 -4 -4 -10z"/>
<path d="M1356 1572 c-2 -4 -1 -14 5 -22 7 -12 9 -10 9 8 0 23 -5 28 -14 14z"/>
<path d="M2058 1470 c-4 -30 -10 -76 -14 -102 -4 -32 -3 -48 4 -48 13 0 25 88
20 155 l-3 50 -7 -55z"/>
<path d="M1356 1488 c-3 -13 -1 -27 4 -32 7 -7 10 1 10 22 0 37 -5 41 -14 10z"/>
<path d="M5114 1474 c-37 -13 -41 -18 -42 -49 -1 -28 5 -39 31 -59 33 -25 123
-53 134 -42 4 4 2 21 -5 39 -6 17 -9 42 -5 55 4 16 -1 30 -17 47 -27 28 -38
29 -96 9z m76 -66 c0 -17 -18 -44 -24 -37 -8 7 5 49 15 49 5 0 9 -6 9 -12z"/>
<path d="M4882 1359 c-2 -19 2 -28 8 -24 12 7 14 55 2 55 -4 0 -9 -14 -10 -31z"/>
<path d="M2000 1350 c0 -5 5 -10 10 -10 6 0 10 5 10 10 0 6 -4 10 -10 10 -5 0
-10 -4 -10 -10z"/>
<path d="M4674 1299 c-3 -6 -1 -16 5 -22 8 -8 11 -5 11 11 0 24 -5 28 -16 11z"/>
<path d="M4776 1301 c-4 -7 -5 -15 -2 -18 9 -9 19 4 14 18 -4 11 -6 11 -12 0z"/>
<path d="M5090 1291 c0 -7 11 -22 25 -35 25 -23 33 -46 16 -46 -15 0 -20 -53
-6 -67 21 -20 44 -16 50 10 23 104 24 107 5 107 -11 0 -35 9 -54 21 -22 13
-36 16 -36 10z"/>
<path d="M2130 1252 c0 -11 9 -27 20 -37 24 -22 25 -18 4 23 -18 36 -24 40
-24 14z"/>
<path d="M3745 1190 c-3 -5 -1 -10 4 -10 6 0 11 5 11 10 0 6 -2 10 -4 10 -3 0
-8 -4 -11 -10z"/>
<path d="M2161 1173 c-16 -17 -11 -25 8 -14 7 5 12 13 10 19 -2 6 -10 4 -18
-5z"/>
<path d="M2508 1183 c7 -3 16 -2 19 1 4 3 -2 6 -13 5 -11 0 -14 -3 -6 -6z"/>
<path d="M2600 1140 c0 -5 6 -10 14 -10 8 0 18 5 21 10 3 6 -3 10 -14 10 -12
0 -21 -4 -21 -10z"/>
<path d="M2490 796 c0 -75 16 -106 22 -43 2 27 7 32 28 32 21 0 26 -5 28 -32
6 -63 22 -32 22 42 0 43 -4 75 -10 75 -5 0 -10 -16 -10 -35 0 -32 -2 -35 -30
-35 -27 0 -30 3 -30 29 0 17 -4 33 -10 36 -6 4 -10 -22 -10 -69z"/>
<path d="M2676 858 c-6 -18 -6 -88 0 -115 4 -20 11 -23 50 -23 29 0 43 4 39
11 -4 6 -13 8 -21 5 -24 -9 -44 5 -44 31 0 23 3 25 30 20 16 -4 32 -2 35 3 4
6 -8 10 -28 10 -40 0 -46 5 -40 31 4 13 14 19 34 19 16 0 29 5 29 10 0 15 -80
12 -84 -2z"/>
<path d="M2857 863 c-11 -10 -8 -143 3 -143 6 0 10 14 10 30 0 17 4 30 8 30 5
0 18 -13 30 -30 28 -38 50 -40 23 -2 -19 28 -19 28 0 40 40 25 12 82 -40 82
-15 0 -31 -3 -34 -7z m71 -37 c4 -20 -13 -36 -40 -36 -18 0 -26 39 -11 54 13
13 48 1 51 -18z"/>
<path d="M3037 863 c-4 -3 -7 -37 -7 -75 l0 -68 46 0 c28 0 43 4 39 10 -4 6
-12 10 -18 9 -36 -4 -48 2 -45 24 2 16 10 22 31 23 42 2 45 14 4 14 -33 0 -37
3 -37 25 0 22 4 25 35 25 19 0 35 5 35 10 0 11 -73 14 -83 3z"/>
<path d="M3415 845 c-32 -31 -33 -77 -3 -105 28 -26 79 -26 103 0 16 17 16 20
2 20 -9 0 -19 -4 -22 -10 -9 -15 -52 -12 -69 6 -21 21 -20 57 2 77 24 22 50
22 74 0 10 -9 21 -13 26 -9 11 12 -37 46 -65 46 -13 0 -35 -11 -48 -25z"/>
<path d="M3610 795 c0 -43 4 -75 10 -75 6 0 10 32 10 75 0 43 -4 75 -10 75 -6
0 -10 -32 -10 -75z"/>
<path d="M3737 802 c-15 -37 -27 -70 -27 -74 0 -17 18 -7 23 12 4 15 14 20 37
20 23 0 33 -5 37 -20 5 -20 23 -28 23 -11 0 14 -43 115 -54 128 -8 9 -18 -4
-39 -55z m53 -14 c0 -4 -9 -8 -21 -8 -15 0 -19 4 -15 16 3 9 6 21 6 27 1 13
30 -22 30 -35z"/>
<path d="M4027 863 c-4 -3 -7 -37 -7 -75 0 -51 3 -69 13 -65 6 2 13 10 13 18
1 8 2 20 3 27 0 6 11 12 24 12 13 0 28 5 35 12 18 18 14 56 -7 68 -22 11 -64
13 -74 3z m71 -40 c2 -14 -3 -23 -17 -28 -27 -8 -40 0 -36 23 2 9 4 21 4 25 2
19 46 1 49 -20z"/>
<path d="M4213 795 c-18 -41 -27 -75 -21 -75 5 0 12 9 15 20 4 15 14 20 38 20
25 0 35 -5 40 -20 6 -19 25 -28 25 -12 0 13 -55 142 -61 142 -3 0 -19 -34 -36
-75z m50 5 c4 -15 0 -20 -15 -20 -14 0 -18 5 -14 16 3 9 6 20 6 25 0 17 17 1
23 -21z"/>
<path d="M4390 796 c0 -44 4 -76 10 -76 6 0 10 30 10 69 0 39 -4 73 -10 76 -6
4 -10 -22 -10 -69z"/>
<path d="M4502 858 c-25 -25 -13 -48 33 -68 49 -21 54 -30 29 -51 -14 -11 -21
-11 -45 3 -30 17 -39 12 -17 -10 7 -7 26 -12 43 -12 69 0 75 52 9 81 -53 24
-53 45 0 43 29 -1 34 1 25 12 -14 17 -61 18 -77 2z"/>
<path d="M4692 798 c-30 -73 -33 -102 -5 -60 20 29 69 30 78 2 3 -11 11 -20
16 -20 6 0 7 9 3 23 -10 34 -52 127 -57 127 -2 0 -18 -33 -35 -72z m51 2 c4
-15 0 -20 -14 -20 -20 0 -23 8 -13 34 7 20 20 13 27 -14z"/>
<path d="M3210 790 c0 -44 4 -70 11 -70 7 0 10 17 7 45 -2 25 0 45 4 45 3 0
19 -20 35 -45 15 -24 31 -44 36 -45 4 0 7 32 7 70 0 76 -17 97 -22 28 l-3 -43
-30 42 c-16 23 -33 42 -37 43 -5 0 -8 -31 -8 -70z"/>
</g>
</svg>
